<mxfile host="app.diagrams.net" modified="2021-08-25T08:24:04.602Z" agent="5.0 (Macintosh; Intel Mac OS X 10_15_5) AppleWebKit/537.36 (KHTML, like Gecko) Chrome/92.0.4515.159 Safari/537.36" etag="lWAkUcTHqxSCEYDOVbTW" version="14.9.9" type="github">
  <diagram id="4ZJ0vDUUfTBXr_d-hYEK" name="Page-1">
    <mxGraphModel dx="1298" dy="748" grid="1" gridSize="10" guides="1" tooltips="1" connect="1" arrows="1" fold="1" page="1" pageScale="1" pageWidth="827" pageHeight="1169" math="0" shadow="0">
      <root>
        <mxCell id="0" />
        <mxCell id="1" parent="0" />
        <mxCell id="1pAz7i3gaedMpaVAOuG8-1" value="指标基础信息" style="swimlane;fontStyle=0;childLayout=stackLayout;horizontal=1;startSize=26;fillColor=none;horizontalStack=0;resizeParent=1;resizeParentMax=0;resizeLast=0;collapsible=1;marginBottom=0;" vertex="1" parent="1">
          <mxGeometry x="330" y="390" width="140" height="134" as="geometry">
            <mxRectangle x="330" y="390" width="100" height="26" as="alternateBounds" />
          </mxGeometry>
        </mxCell>
        <mxCell id="1pAz7i3gaedMpaVAOuG8-2" value="名称" style="text;strokeColor=none;fillColor=none;align=left;verticalAlign=top;spacingLeft=4;spacingRight=4;overflow=hidden;rotatable=0;points=[[0,0.5],[1,0.5]];portConstraint=eastwest;" vertex="1" parent="1pAz7i3gaedMpaVAOuG8-1">
          <mxGeometry y="26" width="140" height="26" as="geometry" />
        </mxCell>
        <mxCell id="1pAz7i3gaedMpaVAOuG8-3" value="编码" style="text;strokeColor=none;fillColor=none;align=left;verticalAlign=top;spacingLeft=4;spacingRight=4;overflow=hidden;rotatable=0;points=[[0,0.5],[1,0.5]];portConstraint=eastwest;" vertex="1" parent="1pAz7i3gaedMpaVAOuG8-1">
          <mxGeometry y="52" width="140" height="26" as="geometry" />
        </mxCell>
        <mxCell id="1pAz7i3gaedMpaVAOuG8-4" value="产品编码" style="text;strokeColor=none;align=left;verticalAlign=top;spacingLeft=4;spacingRight=4;overflow=hidden;rotatable=0;points=[[0,0.5],[1,0.5]];portConstraint=eastwest;" vertex="1" parent="1pAz7i3gaedMpaVAOuG8-1">
          <mxGeometry y="78" width="140" height="30" as="geometry" />
        </mxCell>
        <mxCell id="1pAz7i3gaedMpaVAOuG8-85" value="状态" style="text;strokeColor=none;fillColor=none;align=left;verticalAlign=top;spacingLeft=4;spacingRight=4;overflow=hidden;rotatable=0;points=[[0,0.5],[1,0.5]];portConstraint=eastwest;" vertex="1" parent="1pAz7i3gaedMpaVAOuG8-1">
          <mxGeometry y="108" width="140" height="26" as="geometry" />
        </mxCell>
        <mxCell id="1pAz7i3gaedMpaVAOuG8-9" value="指标分类" style="swimlane;fontStyle=0;childLayout=stackLayout;horizontal=1;startSize=26;fillColor=none;horizontalStack=0;resizeParent=1;resizeParentMax=0;resizeLast=0;collapsible=1;marginBottom=0;" vertex="1" parent="1">
          <mxGeometry x="330" y="200" width="140" height="78" as="geometry" />
        </mxCell>
        <mxCell id="1pAz7i3gaedMpaVAOuG8-10" value="名称" style="text;strokeColor=none;fillColor=none;align=left;verticalAlign=top;spacingLeft=4;spacingRight=4;overflow=hidden;rotatable=0;points=[[0,0.5],[1,0.5]];portConstraint=eastwest;" vertex="1" parent="1pAz7i3gaedMpaVAOuG8-9">
          <mxGeometry y="26" width="140" height="26" as="geometry" />
        </mxCell>
        <mxCell id="1pAz7i3gaedMpaVAOuG8-11" value="编码" style="text;strokeColor=none;fillColor=none;align=left;verticalAlign=top;spacingLeft=4;spacingRight=4;overflow=hidden;rotatable=0;points=[[0,0.5],[1,0.5]];portConstraint=eastwest;" vertex="1" parent="1pAz7i3gaedMpaVAOuG8-9">
          <mxGeometry y="52" width="140" height="26" as="geometry" />
        </mxCell>
        <mxCell id="1pAz7i3gaedMpaVAOuG8-13" value="产品基础信息" style="swimlane;fontStyle=0;childLayout=stackLayout;horizontal=1;startSize=26;fillColor=none;horizontalStack=0;resizeParent=1;resizeParentMax=0;resizeLast=0;collapsible=1;marginBottom=0;" vertex="1" parent="1">
          <mxGeometry x="100" y="390" width="140" height="104" as="geometry" />
        </mxCell>
        <mxCell id="1pAz7i3gaedMpaVAOuG8-14" value="名称" style="text;strokeColor=none;fillColor=none;align=left;verticalAlign=top;spacingLeft=4;spacingRight=4;overflow=hidden;rotatable=0;points=[[0,0.5],[1,0.5]];portConstraint=eastwest;" vertex="1" parent="1pAz7i3gaedMpaVAOuG8-13">
          <mxGeometry y="26" width="140" height="26" as="geometry" />
        </mxCell>
        <mxCell id="1pAz7i3gaedMpaVAOuG8-15" value="编码" style="text;strokeColor=none;fillColor=none;align=left;verticalAlign=top;spacingLeft=4;spacingRight=4;overflow=hidden;rotatable=0;points=[[0,0.5],[1,0.5]];portConstraint=eastwest;" vertex="1" parent="1pAz7i3gaedMpaVAOuG8-13">
          <mxGeometry y="52" width="140" height="26" as="geometry" />
        </mxCell>
        <mxCell id="1pAz7i3gaedMpaVAOuG8-16" value="状态" style="text;strokeColor=none;fillColor=none;align=left;verticalAlign=top;spacingLeft=4;spacingRight=4;overflow=hidden;rotatable=0;points=[[0,0.5],[1,0.5]];portConstraint=eastwest;" vertex="1" parent="1pAz7i3gaedMpaVAOuG8-13">
          <mxGeometry y="78" width="140" height="26" as="geometry" />
        </mxCell>
        <mxCell id="1pAz7i3gaedMpaVAOuG8-17" value="产品赛道" style="swimlane;fontStyle=0;childLayout=stackLayout;horizontal=1;startSize=26;fillColor=none;horizontalStack=0;resizeParent=1;resizeParentMax=0;resizeLast=0;collapsible=1;marginBottom=0;" vertex="1" parent="1">
          <mxGeometry x="100" y="200" width="140" height="78" as="geometry" />
        </mxCell>
        <mxCell id="1pAz7i3gaedMpaVAOuG8-18" value="名称" style="text;strokeColor=none;fillColor=none;align=left;verticalAlign=top;spacingLeft=4;spacingRight=4;overflow=hidden;rotatable=0;points=[[0,0.5],[1,0.5]];portConstraint=eastwest;" vertex="1" parent="1pAz7i3gaedMpaVAOuG8-17">
          <mxGeometry y="26" width="140" height="26" as="geometry" />
        </mxCell>
        <mxCell id="1pAz7i3gaedMpaVAOuG8-19" value="编码" style="text;strokeColor=none;fillColor=none;align=left;verticalAlign=top;spacingLeft=4;spacingRight=4;overflow=hidden;rotatable=0;points=[[0,0.5],[1,0.5]];portConstraint=eastwest;" vertex="1" parent="1pAz7i3gaedMpaVAOuG8-17">
          <mxGeometry y="52" width="140" height="26" as="geometry" />
        </mxCell>
        <mxCell id="1pAz7i3gaedMpaVAOuG8-21" value="" style="endArrow=diamondThin;endFill=0;endSize=24;html=1;" edge="1" parent="1">
          <mxGeometry width="160" relative="1" as="geometry">
            <mxPoint x="397" y="390" as="sourcePoint" />
            <mxPoint x="397" y="280" as="targetPoint" />
          </mxGeometry>
        </mxCell>
        <mxCell id="1pAz7i3gaedMpaVAOuG8-22" value="" style="endArrow=diamondThin;endFill=0;endSize=24;html=1;exitX=0.421;exitY=0.01;exitDx=0;exitDy=0;exitPerimeter=0;" edge="1" parent="1" source="1pAz7i3gaedMpaVAOuG8-13">
          <mxGeometry width="160" relative="1" as="geometry">
            <mxPoint x="188" y="390" as="sourcePoint" />
            <mxPoint x="159" y="280" as="targetPoint" />
          </mxGeometry>
        </mxCell>
        <mxCell id="1pAz7i3gaedMpaVAOuG8-23" value="用户基础信息" style="swimlane;fontStyle=0;childLayout=stackLayout;horizontal=1;startSize=26;fillColor=none;horizontalStack=0;resizeParent=1;resizeParentMax=0;resizeLast=0;collapsible=1;marginBottom=0;" vertex="1" parent="1">
          <mxGeometry x="760" y="390" width="140" height="104" as="geometry" />
        </mxCell>
        <mxCell id="1pAz7i3gaedMpaVAOuG8-24" value="rtx" style="text;strokeColor=none;fillColor=none;align=left;verticalAlign=top;spacingLeft=4;spacingRight=4;overflow=hidden;rotatable=0;points=[[0,0.5],[1,0.5]];portConstraint=eastwest;" vertex="1" parent="1pAz7i3gaedMpaVAOuG8-23">
          <mxGeometry y="26" width="140" height="26" as="geometry" />
        </mxCell>
        <mxCell id="1pAz7i3gaedMpaVAOuG8-25" value="添加日期" style="text;strokeColor=none;fillColor=none;align=left;verticalAlign=top;spacingLeft=4;spacingRight=4;overflow=hidden;rotatable=0;points=[[0,0.5],[1,0.5]];portConstraint=eastwest;" vertex="1" parent="1pAz7i3gaedMpaVAOuG8-23">
          <mxGeometry y="52" width="140" height="26" as="geometry" />
        </mxCell>
        <mxCell id="1pAz7i3gaedMpaVAOuG8-26" value="是否禁用" style="text;strokeColor=none;fillColor=none;align=left;verticalAlign=top;spacingLeft=4;spacingRight=4;overflow=hidden;rotatable=0;points=[[0,0.5],[1,0.5]];portConstraint=eastwest;" vertex="1" parent="1pAz7i3gaedMpaVAOuG8-23">
          <mxGeometry y="78" width="140" height="26" as="geometry" />
        </mxCell>
        <mxCell id="1pAz7i3gaedMpaVAOuG8-27" value="角色" style="swimlane;fontStyle=0;childLayout=stackLayout;horizontal=1;startSize=26;fillColor=none;horizontalStack=0;resizeParent=1;resizeParentMax=0;resizeLast=0;collapsible=1;marginBottom=0;" vertex="1" parent="1">
          <mxGeometry x="760" y="200" width="140" height="78" as="geometry" />
        </mxCell>
        <mxCell id="1pAz7i3gaedMpaVAOuG8-28" value="名称" style="text;strokeColor=none;fillColor=none;align=left;verticalAlign=top;spacingLeft=4;spacingRight=4;overflow=hidden;rotatable=0;points=[[0,0.5],[1,0.5]];portConstraint=eastwest;" vertex="1" parent="1pAz7i3gaedMpaVAOuG8-27">
          <mxGeometry y="26" width="140" height="26" as="geometry" />
        </mxCell>
        <mxCell id="1pAz7i3gaedMpaVAOuG8-29" value="编码" style="text;strokeColor=none;fillColor=none;align=left;verticalAlign=top;spacingLeft=4;spacingRight=4;overflow=hidden;rotatable=0;points=[[0,0.5],[1,0.5]];portConstraint=eastwest;" vertex="1" parent="1pAz7i3gaedMpaVAOuG8-27">
          <mxGeometry y="52" width="140" height="26" as="geometry" />
        </mxCell>
        <mxCell id="1pAz7i3gaedMpaVAOuG8-31" value="日数据" style="swimlane;fontStyle=0;childLayout=stackLayout;horizontal=1;startSize=26;fillColor=none;horizontalStack=0;resizeParent=1;resizeParentMax=0;resizeLast=0;collapsible=1;marginBottom=0;" vertex="1" parent="1">
          <mxGeometry x="240" y="600" width="140" height="104" as="geometry" />
        </mxCell>
        <mxCell id="1pAz7i3gaedMpaVAOuG8-32" value="日期" style="text;strokeColor=none;fillColor=none;align=left;verticalAlign=top;spacingLeft=4;spacingRight=4;overflow=hidden;rotatable=0;points=[[0,0.5],[1,0.5]];portConstraint=eastwest;" vertex="1" parent="1pAz7i3gaedMpaVAOuG8-31">
          <mxGeometry y="26" width="140" height="26" as="geometry" />
        </mxCell>
        <mxCell id="1pAz7i3gaedMpaVAOuG8-33" value="数值" style="text;strokeColor=none;fillColor=none;align=left;verticalAlign=top;spacingLeft=4;spacingRight=4;overflow=hidden;rotatable=0;points=[[0,0.5],[1,0.5]];portConstraint=eastwest;" vertex="1" parent="1pAz7i3gaedMpaVAOuG8-31">
          <mxGeometry y="52" width="140" height="26" as="geometry" />
        </mxCell>
        <mxCell id="1pAz7i3gaedMpaVAOuG8-34" value="单位" style="text;strokeColor=none;fillColor=none;align=left;verticalAlign=top;spacingLeft=4;spacingRight=4;overflow=hidden;rotatable=0;points=[[0,0.5],[1,0.5]];portConstraint=eastwest;" vertex="1" parent="1pAz7i3gaedMpaVAOuG8-31">
          <mxGeometry y="78" width="140" height="26" as="geometry" />
        </mxCell>
        <mxCell id="1pAz7i3gaedMpaVAOuG8-35" value="月数据" style="swimlane;fontStyle=0;childLayout=stackLayout;horizontal=1;startSize=26;fillColor=none;horizontalStack=0;resizeParent=1;resizeParentMax=0;resizeLast=0;collapsible=1;marginBottom=0;" vertex="1" parent="1">
          <mxGeometry x="415" y="600" width="140" height="104" as="geometry" />
        </mxCell>
        <mxCell id="1pAz7i3gaedMpaVAOuG8-36" value="月份" style="text;strokeColor=none;fillColor=none;align=left;verticalAlign=top;spacingLeft=4;spacingRight=4;overflow=hidden;rotatable=0;points=[[0,0.5],[1,0.5]];portConstraint=eastwest;" vertex="1" parent="1pAz7i3gaedMpaVAOuG8-35">
          <mxGeometry y="26" width="140" height="26" as="geometry" />
        </mxCell>
        <mxCell id="1pAz7i3gaedMpaVAOuG8-37" value="数值" style="text;strokeColor=none;fillColor=none;align=left;verticalAlign=top;spacingLeft=4;spacingRight=4;overflow=hidden;rotatable=0;points=[[0,0.5],[1,0.5]];portConstraint=eastwest;" vertex="1" parent="1pAz7i3gaedMpaVAOuG8-35">
          <mxGeometry y="52" width="140" height="26" as="geometry" />
        </mxCell>
        <mxCell id="1pAz7i3gaedMpaVAOuG8-38" value="单位" style="text;strokeColor=none;fillColor=none;align=left;verticalAlign=top;spacingLeft=4;spacingRight=4;overflow=hidden;rotatable=0;points=[[0,0.5],[1,0.5]];portConstraint=eastwest;" vertex="1" parent="1pAz7i3gaedMpaVAOuG8-35">
          <mxGeometry y="78" width="140" height="26" as="geometry" />
        </mxCell>
        <mxCell id="1pAz7i3gaedMpaVAOuG8-39" value="" style="endArrow=diamondThin;endFill=1;endSize=24;html=1;entryX=0.179;entryY=1.077;entryDx=0;entryDy=0;entryPerimeter=0;" edge="1" parent="1" target="1pAz7i3gaedMpaVAOuG8-85">
          <mxGeometry width="160" relative="1" as="geometry">
            <mxPoint x="355" y="600" as="sourcePoint" />
            <mxPoint x="360" y="550" as="targetPoint" />
          </mxGeometry>
        </mxCell>
        <mxCell id="1pAz7i3gaedMpaVAOuG8-40" value="" style="endArrow=diamondThin;endFill=1;endSize=24;html=1;entryX=0.714;entryY=0.962;entryDx=0;entryDy=0;entryPerimeter=0;" edge="1" parent="1" target="1pAz7i3gaedMpaVAOuG8-85">
          <mxGeometry width="160" relative="1" as="geometry">
            <mxPoint x="430" y="598" as="sourcePoint" />
            <mxPoint x="449" y="530" as="targetPoint" />
            <Array as="points" />
          </mxGeometry>
        </mxCell>
        <mxCell id="1pAz7i3gaedMpaVAOuG8-41" value="数据权限" style="swimlane;fontStyle=0;childLayout=stackLayout;horizontal=1;startSize=26;fillColor=none;horizontalStack=0;resizeParent=1;resizeParentMax=0;resizeLast=0;collapsible=1;marginBottom=0;" vertex="1" parent="1">
          <mxGeometry x="760" y="600" width="140" height="104" as="geometry" />
        </mxCell>
        <mxCell id="1pAz7i3gaedMpaVAOuG8-42" value="rtx" style="text;strokeColor=none;fillColor=none;align=left;verticalAlign=top;spacingLeft=4;spacingRight=4;overflow=hidden;rotatable=0;points=[[0,0.5],[1,0.5]];portConstraint=eastwest;" vertex="1" parent="1pAz7i3gaedMpaVAOuG8-41">
          <mxGeometry y="26" width="140" height="26" as="geometry" />
        </mxCell>
        <mxCell id="1pAz7i3gaedMpaVAOuG8-43" value="权限类型" style="text;strokeColor=none;fillColor=none;align=left;verticalAlign=top;spacingLeft=4;spacingRight=4;overflow=hidden;rotatable=0;points=[[0,0.5],[1,0.5]];portConstraint=eastwest;" vertex="1" parent="1pAz7i3gaedMpaVAOuG8-41">
          <mxGeometry y="52" width="140" height="26" as="geometry" />
        </mxCell>
        <mxCell id="1pAz7i3gaedMpaVAOuG8-44" value="编码" style="text;strokeColor=none;fillColor=none;align=left;verticalAlign=top;spacingLeft=4;spacingRight=4;overflow=hidden;rotatable=0;points=[[0,0.5],[1,0.5]];portConstraint=eastwest;" vertex="1" parent="1pAz7i3gaedMpaVAOuG8-41">
          <mxGeometry y="78" width="140" height="26" as="geometry" />
        </mxCell>
        <mxCell id="1pAz7i3gaedMpaVAOuG8-51" value="1" style="text;html=1;align=center;verticalAlign=middle;resizable=0;points=[];autosize=1;strokeColor=none;" vertex="1" parent="1">
          <mxGeometry x="160" y="320" width="20" height="20" as="geometry" />
        </mxCell>
        <mxCell id="1pAz7i3gaedMpaVAOuG8-52" value="1..*" style="text;html=1;align=center;verticalAlign=middle;resizable=0;points=[];autosize=1;strokeColor=none;" vertex="1" parent="1">
          <mxGeometry x="160" y="370" width="30" height="20" as="geometry" />
        </mxCell>
        <mxCell id="1pAz7i3gaedMpaVAOuG8-53" value="1" style="text;html=1;align=center;verticalAlign=middle;resizable=0;points=[];autosize=1;strokeColor=none;" vertex="1" parent="1">
          <mxGeometry x="400" y="320" width="20" height="20" as="geometry" />
        </mxCell>
        <mxCell id="1pAz7i3gaedMpaVAOuG8-54" value="1..*" style="text;html=1;align=center;verticalAlign=middle;resizable=0;points=[];autosize=1;strokeColor=none;" vertex="1" parent="1">
          <mxGeometry x="400" y="370" width="30" height="20" as="geometry" />
        </mxCell>
        <mxCell id="1pAz7i3gaedMpaVAOuG8-56" value="1" style="text;html=1;align=center;verticalAlign=middle;resizable=0;points=[];autosize=1;strokeColor=none;" vertex="1" parent="1">
          <mxGeometry x="365" y="530" width="20" height="20" as="geometry" />
        </mxCell>
        <mxCell id="1pAz7i3gaedMpaVAOuG8-57" value="0..*" style="text;html=1;align=center;verticalAlign=middle;resizable=0;points=[];autosize=1;strokeColor=none;" vertex="1" parent="1">
          <mxGeometry x="360" y="580" width="30" height="20" as="geometry" />
        </mxCell>
        <mxCell id="1pAz7i3gaedMpaVAOuG8-58" value="1" style="text;html=1;align=center;verticalAlign=middle;resizable=0;points=[];autosize=1;strokeColor=none;" vertex="1" parent="1">
          <mxGeometry x="445" y="530" width="20" height="20" as="geometry" />
        </mxCell>
        <mxCell id="1pAz7i3gaedMpaVAOuG8-59" value="0..*" style="text;html=1;align=center;verticalAlign=middle;resizable=0;points=[];autosize=1;strokeColor=none;" vertex="1" parent="1">
          <mxGeometry x="440" y="580" width="30" height="20" as="geometry" />
        </mxCell>
        <mxCell id="1pAz7i3gaedMpaVAOuG8-69" value="平台" style="swimlane;fontStyle=0;childLayout=stackLayout;horizontal=1;startSize=26;fillColor=none;horizontalStack=0;resizeParent=1;resizeParentMax=0;resizeLast=0;collapsible=1;marginBottom=0;" vertex="1" parent="1">
          <mxGeometry x="560" y="391" width="140" height="78" as="geometry" />
        </mxCell>
        <mxCell id="1pAz7i3gaedMpaVAOuG8-70" value="名称" style="text;strokeColor=none;fillColor=none;align=left;verticalAlign=top;spacingLeft=4;spacingRight=4;overflow=hidden;rotatable=0;points=[[0,0.5],[1,0.5]];portConstraint=eastwest;" vertex="1" parent="1pAz7i3gaedMpaVAOuG8-69">
          <mxGeometry y="26" width="140" height="26" as="geometry" />
        </mxCell>
        <mxCell id="1pAz7i3gaedMpaVAOuG8-71" value="编码" style="text;strokeColor=none;fillColor=none;align=left;verticalAlign=top;spacingLeft=4;spacingRight=4;overflow=hidden;rotatable=0;points=[[0,0.5],[1,0.5]];portConstraint=eastwest;" vertex="1" parent="1pAz7i3gaedMpaVAOuG8-69">
          <mxGeometry y="52" width="140" height="26" as="geometry" />
        </mxCell>
        <mxCell id="1pAz7i3gaedMpaVAOuG8-73" value="" style="endArrow=diamondThin;endFill=1;endSize=24;html=1;exitX=-0.007;exitY=0.923;exitDx=0;exitDy=0;exitPerimeter=0;" edge="1" parent="1" source="1pAz7i3gaedMpaVAOuG8-2">
          <mxGeometry width="160" relative="1" as="geometry">
            <mxPoint x="330" y="420" as="sourcePoint" />
            <mxPoint x="240" y="440" as="targetPoint" />
          </mxGeometry>
        </mxCell>
        <mxCell id="1pAz7i3gaedMpaVAOuG8-74" value="1" style="text;html=1;align=center;verticalAlign=middle;resizable=0;points=[];autosize=1;strokeColor=none;" vertex="1" parent="1">
          <mxGeometry x="260" y="420" width="20" height="20" as="geometry" />
        </mxCell>
        <mxCell id="1pAz7i3gaedMpaVAOuG8-75" value="1..*" style="text;html=1;align=center;verticalAlign=middle;resizable=0;points=[];autosize=1;strokeColor=none;" vertex="1" parent="1">
          <mxGeometry x="305" y="420" width="30" height="20" as="geometry" />
        </mxCell>
        <mxCell id="1pAz7i3gaedMpaVAOuG8-80" value="" style="endArrow=diamondThin;endFill=0;endSize=24;html=1;entryX=0.993;entryY=0.885;entryDx=0;entryDy=0;entryPerimeter=0;" edge="1" parent="1" target="1pAz7i3gaedMpaVAOuG8-2">
          <mxGeometry width="160" relative="1" as="geometry">
            <mxPoint x="560" y="439" as="sourcePoint" />
            <mxPoint x="407.05999999999995" y="314" as="targetPoint" />
          </mxGeometry>
        </mxCell>
        <mxCell id="1pAz7i3gaedMpaVAOuG8-81" value="1" style="text;html=1;align=center;verticalAlign=middle;resizable=0;points=[];autosize=1;strokeColor=none;" vertex="1" parent="1">
          <mxGeometry x="490" y="420" width="20" height="20" as="geometry" />
        </mxCell>
        <mxCell id="1pAz7i3gaedMpaVAOuG8-82" value="1..*" style="text;html=1;align=center;verticalAlign=middle;resizable=0;points=[];autosize=1;strokeColor=none;" vertex="1" parent="1">
          <mxGeometry x="525" y="420" width="30" height="20" as="geometry" />
        </mxCell>
        <mxCell id="1pAz7i3gaedMpaVAOuG8-94" value="" style="endArrow=none;html=1;edgeStyle=orthogonalEdgeStyle;rounded=1;entryX=0.514;entryY=0.962;entryDx=0;entryDy=0;entryPerimeter=0;exitX=0.5;exitY=0;exitDx=0;exitDy=0;" edge="1" parent="1" source="1pAz7i3gaedMpaVAOuG8-23" target="1pAz7i3gaedMpaVAOuG8-29">
          <mxGeometry relative="1" as="geometry">
            <mxPoint x="750" y="350" as="sourcePoint" />
            <mxPoint x="910" y="350" as="targetPoint" />
            <Array as="points">
              <mxPoint x="832" y="390" />
            </Array>
          </mxGeometry>
        </mxCell>
        <mxCell id="1pAz7i3gaedMpaVAOuG8-95" value="1..*" style="edgeLabel;resizable=0;html=1;align=left;verticalAlign=bottom;" connectable="0" vertex="1" parent="1pAz7i3gaedMpaVAOuG8-94">
          <mxGeometry x="-1" relative="1" as="geometry">
            <mxPoint x="10" as="offset" />
          </mxGeometry>
        </mxCell>
        <mxCell id="1pAz7i3gaedMpaVAOuG8-96" value="1..*" style="edgeLabel;resizable=0;html=1;align=right;verticalAlign=bottom;" connectable="0" vertex="1" parent="1pAz7i3gaedMpaVAOuG8-94">
          <mxGeometry x="1" relative="1" as="geometry">
            <mxPoint x="28" y="23" as="offset" />
          </mxGeometry>
        </mxCell>
        <mxCell id="1pAz7i3gaedMpaVAOuG8-97" value="" style="endArrow=none;html=1;edgeStyle=orthogonalEdgeStyle;rounded=1;entryX=0.514;entryY=0.962;entryDx=0;entryDy=0;entryPerimeter=0;" edge="1" parent="1">
          <mxGeometry relative="1" as="geometry">
            <mxPoint x="829" y="590" as="sourcePoint" />
            <mxPoint x="828.96" y="494.00199999999995" as="targetPoint" />
            <Array as="points">
              <mxPoint x="829" y="606.99" />
            </Array>
          </mxGeometry>
        </mxCell>
        <mxCell id="1pAz7i3gaedMpaVAOuG8-98" value="1..*" style="edgeLabel;resizable=0;html=1;align=left;verticalAlign=bottom;" connectable="0" vertex="1" parent="1pAz7i3gaedMpaVAOuG8-97">
          <mxGeometry x="-1" relative="1" as="geometry">
            <mxPoint x="10" as="offset" />
          </mxGeometry>
        </mxCell>
        <mxCell id="1pAz7i3gaedMpaVAOuG8-99" value="1..*" style="edgeLabel;resizable=0;html=1;align=right;verticalAlign=bottom;" connectable="0" vertex="1" parent="1pAz7i3gaedMpaVAOuG8-97">
          <mxGeometry x="1" relative="1" as="geometry">
            <mxPoint x="28" y="23" as="offset" />
          </mxGeometry>
        </mxCell>
      </root>
    </mxGraphModel>
  </diagram>
</mxfile>
